# xmcd CD database file
#
# Track frame offsets:
#	187
#	4595
#	23950
#	46632
#	65182
#	92285
#	107522
#	128805
#	150617
#	158015
#	182152
#	207367
#	228725
#	252840
#	262212
#	282180
#	312272
#
# Disc length: 4462 seconds
#
# Revision: 6
# Processed by: cddbd v1.5.2PL0 Copyright (c) Steve Scherf et al.
# Submitted via: CDex 1.70beta3
#
DISCID=e1116c11
DTITLE=嘉門達夫 - THE BEST OF KAMON TATSUO II
DYEAR=1994
DGENRE=JPop
TTITLE0=寿司屋
TTITLE1=替え唄メドレー2
TTITLE2=替え唄メドレー3(完結篇)
TTITLE3=ワッチャー＆ひねりなさい
TTITLE4=鼻から牛乳
TTITLE5=オーマイガー!!(スキスキお菓子バージョン)
TTITLE6=NIPPONのサザエさん
TTITLE7=Go!Go!スクールメイツ
TTITLE8=ものまねアワー
TTITLE9=マーフィーの法則
TTITLE10=この中にひとり
TTITLE11=君がいた季節
TTITLE12=WE ARE ROCKMAN
TTITLE13=田中さん
TTITLE14=カラオケならOK
TTITLE15=関西キッズ
TTITLE16=ハンバーガーショップ(国会篇)
EXTD=YEAR: 1994
EXTT0=
EXTT1=
EXTT2=
EXTT3=
EXTT4=
EXTT5=
EXTT6=
EXTT7=
EXTT8=
EXTT9=
EXTT10=
EXTT11=
EXTT12=
EXTT13=
EXTT14=
EXTT15=
EXTT16=
PLAYORDER=
